<svg width="14" height="14" viewBox="0 0 14 14" fill="none" xmlns="http://www.w3.org/2000/svg">
<path d="M12.0312 6.125V11.375C12.0312 11.6651 11.916 11.9433 11.7109 12.1484C11.5058 12.3535 11.2276 12.4687 10.9375 12.4687H3.0625C2.77242 12.4687 2.49422 12.3535 2.2891 12.1484C2.08398 11.9433 1.96875 11.6651 1.96875 11.375V6.125C1.96875 5.83492 2.08398 5.55672 2.2891 5.3516C2.49422 5.14648 2.77242 5.03125 3.0625 5.03125H4.15625C4.3303 5.03125 4.49722 5.10039 4.62029 5.22346C4.74336 5.34653 4.8125 5.51345 4.8125 5.6875C4.8125 5.86155 4.74336 6.02847 4.62029 6.15154C4.49722 6.27461 4.3303 6.34375 4.15625 6.34375H3.28125V11.1562H10.7188V6.34375H9.84375C9.6697 6.34375 9.50278 6.27461 9.37971 6.15154C9.25664 6.02847 9.1875 5.86155 9.1875 5.6875C9.1875 5.51345 9.25664 5.34653 9.37971 5.22346C9.50278 5.10039 9.6697 5.03125 9.84375 5.03125H10.9375C11.2276 5.03125 11.5058 5.14648 11.7109 5.3516C11.916 5.55672 12.0312 5.83492 12.0312 6.125ZM5.2768 3.9643L6.34375 2.89844V7.4375C6.34375 7.61155 6.41289 7.77847 6.53596 7.90154C6.65903 8.02461 6.82595 8.09375 7 8.09375C7.17405 8.09375 7.34097 8.02461 7.46404 7.90154C7.58711 7.77847 7.65625 7.61155 7.65625 7.4375V2.89844L8.7232 3.96594C8.78425 4.02698 8.85672 4.0754 8.93648 4.10844C9.01623 4.14148 9.10172 4.15848 9.18805 4.15848C9.27438 4.15848 9.35986 4.14148 9.43962 4.10844C9.51938 4.0754 9.59185 4.02698 9.65289 3.96594C9.71393 3.90489 9.76236 3.83242 9.79539 3.75266C9.82843 3.67291 9.84544 3.58742 9.84544 3.50109C9.84544 3.41476 9.82843 3.32928 9.79539 3.24952C9.76236 3.16976 9.71393 3.09729 9.65289 3.03625L7.46539 0.848749C7.40442 0.787569 7.33198 0.739026 7.25221 0.705903C7.17244 0.672781 7.08692 0.655731 7.00055 0.655731C6.91418 0.655731 6.82865 0.672781 6.74888 0.705903C6.66912 0.739026 6.59667 0.787569 6.5357 0.848749L4.3482 3.03625C4.28716 3.09729 4.23874 3.16976 4.2057 3.24952C4.17266 3.32928 4.15566 3.41476 4.15566 3.50109C4.15566 3.67544 4.22492 3.84265 4.3482 3.96594C4.47149 4.08922 4.6387 4.15848 4.81305 4.15848C4.9874 4.15848 5.15461 4.08922 5.27789 3.96594L5.2768 3.9643Z" fill="#101828"/>
</svg>
