<svg width="24" height="24" viewBox="0 0 24 24" fill="none" xmlns="http://www.w3.org/2000/svg">
<path d="M15.1 7.50001L10 12.6L10 10.35L8 10.35L8 16L13.65 16L13.65 14L11.425 14L16.5 8.92501L15.1 7.50001ZM12 2.00001C13.3833 2.00001 14.6833 2.26267 15.9 2.78801C17.1167 3.31334 18.175 4.02567 19.075 4.92501C19.975 5.82434 20.6873 6.88268 21.212 8.10001C21.7367 9.31734 21.9993 10.6173 22 12C22.0007 13.3827 21.738 14.6827 21.212 15.9C20.686 17.1173 19.9737 18.1757 19.075 19.075C18.1763 19.9743 17.118 20.6867 15.9 21.212C14.682 21.7373 13.382 22 12 22C10.618 22 9.318 21.7373 8.1 21.212C6.882 20.6867 5.82366 19.9743 4.925 19.075C4.02633 18.1757 3.31367 17.1173 2.787 15.9C2.26033 14.6827 1.998 13.3827 2 12C2.002 10.6173 2.26467 9.31734 2.788 8.10001C3.31133 6.88267 4.02367 5.82434 4.925 4.92501C5.82633 4.02567 6.88467 3.31301 8.1 2.78701C9.31533 2.26101 10.6153 1.99867 12 2.00001ZM12 4.00001C9.76667 4.00001 7.875 4.77501 6.325 6.32501C4.775 7.87501 4 9.76667 4 12C4 14.2333 4.775 16.125 6.325 17.675C7.875 19.225 9.76667 20 12 20C14.2333 20 16.125 19.225 17.675 17.675C19.225 16.125 20 14.2333 20 12C20 9.76667 19.225 7.87501 17.675 6.32501C16.125 4.77501 14.2333 4.00001 12 4.00001Z" fill="#667085"/>
</svg>
