<svg width="18" height="18" viewBox="0 0 18 18" fill="none" xmlns="http://www.w3.org/2000/svg">
<g clip-path="url(#clip0_3_9103)">
<path fill-rule="evenodd" clip-rule="evenodd" d="M1.5 3.75C1.5 3.35218 1.65804 2.97064 1.93934 2.68934C2.22064 2.40804 2.60218 2.25 3 2.25H7.14C7.36483 2.25003 7.58677 2.30059 7.78942 2.39796C7.99206 2.49532 8.17023 2.637 8.31075 2.8125L9.36075 4.125H15C15.3978 4.125 15.7794 4.28304 16.0607 4.56434C16.342 4.84564 16.5 5.22718 16.5 5.625V14.25C16.5 14.6478 16.342 15.0294 16.0607 15.3107C15.7794 15.592 15.3978 15.75 15 15.75H3C2.60218 15.75 2.22064 15.592 1.93934 15.3107C1.65804 15.0294 1.5 14.6478 1.5 14.25V3.75ZM9 6.75C9.19891 6.75 9.38968 6.82902 9.53033 6.96967C9.67098 7.11032 9.75 7.30109 9.75 7.5V9H11.25C11.4489 9 11.6397 9.07902 11.7803 9.21967C11.921 9.36032 12 9.55109 12 9.75C12 9.94891 11.921 10.1397 11.7803 10.2803C11.6397 10.421 11.4489 10.5 11.25 10.5H9.75V12C9.75 12.1989 9.67098 12.3897 9.53033 12.5303C9.38968 12.671 9.19891 12.75 9 12.75C8.80109 12.75 8.61032 12.671 8.46967 12.5303C8.32902 12.3897 8.25 12.1989 8.25 12V10.5H6.75C6.55109 10.5 6.36032 10.421 6.21967 10.2803C6.07902 10.1397 6 9.94891 6 9.75C6 9.55109 6.07902 9.36032 6.21967 9.21967C6.36032 9.07902 6.55109 9 6.75 9H8.25V7.5C8.25 7.30109 8.32902 7.11032 8.46967 6.96967C8.61032 6.82902 8.80109 6.75 9 6.75Z" fill="white"/>
</g>
<defs>
<clipPath id="clip0_3_9103">
<rect width="18" height="18" fill="white"/>
</clipPath>
</defs>
</svg>
