<svg width="24" height="22" viewBox="0 0 24 22" fill="none" xmlns="http://www.w3.org/2000/svg">
<path d="M20 15.5H22V17.5H2V15.5H4V8.5C4 6.37827 4.84285 4.34344 6.34315 2.84315C7.84344 1.34285 9.87827 0.5 12 0.5C14.1217 0.5 16.1566 1.34285 17.6569 2.84315C19.1571 4.34344 20 6.37827 20 8.5V15.5ZM18 15.5V8.5C18 6.9087 17.3679 5.38258 16.2426 4.25736C15.1174 3.13214 13.5913 2.5 12 2.5C10.4087 2.5 8.88258 3.13214 7.75736 4.25736C6.63214 5.38258 6 6.9087 6 8.5V15.5H18ZM9 19.5H15V21.5H9V19.5Z" fill="#667085"/>
</svg>
